ffmpeg started on 2025-05-05 at 10:28:57
Report written to "D:\Convert\FFMetrics\reports\ssim_report-6.txt"
Log level: 32
Command line:
ffmpeg -hide_banner -nostdin -i "G:\\\xc0\xed\xe8\xec\xe5\\\xce\xed\xe3\xee\xe8\xed\xe3\xe8\\!_35_\xcb\xe5\xf2\xee_2024\\JamClub-1\\\xcb\xfe\xe4\xe8 \xef\xee\xe4\xe7\xe5\xec\xe5\xeb\xfc\xff\\JamClub_Dungeon_no_Naka_no_Hito_05_1080p_HEVC.mkv" -i "G:\\\xc0\xed\xe8\xec\xe5\\\xce\xed\xe3\xee\xe8\xed\xe3\xe8\\!_35_\xcb\xe5\xf2\xee_2024\\JamClub-1\\\xcb\xfe\xe4\xe8 \xef\xee\xe4\xe7\xe5\xec\xe5\xeb\xfc\xff\\JamClub_Dungeon_no_Naka_no_Hito_05_1080p.mp4" -lavfi "[0:v]settb=AVTB,setpts=PTS-STARTPTS,format=pix_fmts=yuv420p10,fps=24000/1001,scale=1920:1080:flags=bicubic[main];[1:v]settb=AVTB,setpts=PTS-STARTPTS,format=pix_fmts=yuv420p,fps=24000/1001,scale=1920:1080:flags=bicubic[ref];[main][ref]ssim=eof_action=endall:stats_file='D\\:/Convert/FFMetrics/logs/ssim_logfile-6.txt'" -f null -
Input #0, matroska,webm, from 'G:\Аниме\Онгоинги\!_35_Лето_2024\JamClub-1\Люди подземелья\JamClub_Dungeon_no_Naka_no_Hito_05_1080p_HEVC.mkv':
  Metadata:
    COMPATIBLE_BRANDS: isomiso2avc1mp41
    MAJOR_BRAND     : isom
    MINOR_VERSION   : 512
    ENCODER         : Lavf61.7.100
  Duration: 00:24:51.71, start: -0.021000, bitrate: 1163 kb/s
  Stream #0:0: Video: hevc (Main 10), yuv420p10le(tv, bt709, progressive), 1920x1080 [SAR 1:1 DAR 16:9], 23.98 fps, 23.98 tbr, 1k tbn (default)
      Metadata:
        HANDLER_NAME    : VideoHandler
        VENDOR_ID       : [0][0][0][0]
        ENCODER         : Lavc61.19.100 libx265
        BPS             : 965876
        DURATION        : 00:24:51.614708333
        NUMBER_OF_FRAMES: 35763
        NUMBER_OF_BYTES : 180089359
        _STATISTICS_WRITING_APP: mkvpropedit v66.0.0 ('Josie') 64-bit
        _STATISTICS_WRITING_DATE_UTC: 2025-05-04 13:34:08
        _STATISTICS_TAGS: BPS DURATION NUMBER_OF_FRAMES NUMBER_OF_BYTES
  Stream #0:1(eng): Audio: aac (LC), 48000 Hz, stereo, fltp (default)
      Metadata:
        HANDLER_NAME    : SoundHandler
        VENDOR_ID       : [0][0][0][0]
        ENCODER         : Lavc61.19.100 aac
        BPS             : 193541
        DURATION        : 00:24:51.693000000
        NUMBER_OF_FRAMES: 69924
        NUMBER_OF_BYTES : 36087988
        _STATISTICS_WRITING_APP: mkvpropedit v66.0.0 ('Josie') 64-bit
        _STATISTICS_WRITING_DATE_UTC: 2025-05-04 13:34:08
        _STATISTICS_TAGS: BPS DURATION NUMBER_OF_FRAMES NUMBER_OF_BYTES
Input #1, mov,mp4,m4a,3gp,3g2,mj2, from 'G:\Аниме\Онгоинги\!_35_Лето_2024\JamClub-1\Люди подземелья\JamClub_Dungeon_no_Naka_no_Hito_05_1080p.mp4':
  Metadata:
    major_brand     : isom
    minor_version   : 512
    compatible_brands: isomiso2avc1mp41
    encoder         : Lavf60.16.100
  Duration: 00:24:51.69, start: 0.000000, bitrate: 3965 kb/s
  Stream #1:0[0x1](und): Video: h264 (High) (avc1 / 0x31637661), yuv420p(tv, bt709, progressive), 1920x1080 [SAR 1:1 DAR 16:9], 3767 kb/s, 23.98 fps, 23.98 tbr, 90k tbn (default)
      Metadata:
        handler_name    : VideoHandler
        vendor_id       : [0][0][0][0]
  Stream #1:1[0x2](eng): Audio: aac (LC) (mp4a / 0x6134706D), 48000 Hz, stereo, fltp, 191 kb/s (default)
      Metadata:
        handler_name    : SoundHandler
        vendor_id       : [0][0][0][0]
Stream mapping:
  Stream #0:0 (hevc) -> settb:default
  Stream #1:0 (h264) -> settb:default
  ssim:default -> Stream #0:0 (wrapped_avframe)
  Stream #0:1 -> #0:1 (aac (native) -> pcm_s16le (native))
Output #0, null, to 'pipe:':
  Metadata:
    COMPATIBLE_BRANDS: isomiso2avc1mp41
    MAJOR_BRAND     : isom
    MINOR_VERSION   : 512
    encoder         : Lavf61.7.100
  Stream #0:0: Video: wrapped_avframe, yuv420p10le(tv, bt709, progressive), 1920x1080 [SAR 1:1 DAR 16:9], q=2-31, 200 kb/s, 23.98 fps, 23.98 tbn
      Metadata:
        encoder         : Lavc61.19.100 wrapped_avframe
  Stream #0:1(eng): Audio: pcm_s16le, 48000 Hz, stereo, s16, 1536 kb/s (default)
      Metadata:
        HANDLER_NAME    : SoundHandler
        VENDOR_ID       : [0][0][0][0]
        _STATISTICS_TAGS: BPS DURATION NUMBER_OF_FRAMES NUMBER_OF_BYTES
        BPS             : 193541
        DURATION        : 00:24:51.693000000
        NUMBER_OF_FRAMES: 69924
        NUMBER_OF_BYTES : 36087988
        _STATISTICS_WRITING_APP: mkvpropedit v66.0.0 ('Josie') 64-bit
        _STATISTICS_WRITING_DATE_UTC: 2025-05-04 13:34:08
        encoder         : Lavc61.19.100 pcm_s16le
frame=  113 fps=0.0 q=-0.0 size=N/A time=00:00:04.71 bitrate=N/A speed=9.31x    frame=  278 fps=270 q=-0.0 size=N/A time=00:00:11.59 bitrate=N/A speed=11.2x    frame=  475 fps=309 q=-0.0 size=N/A time=00:00:19.81 bitrate=N/A speed=12.9x    frame=  735 fps=357 q=-0.0 size=N/A time=00:00:30.65 bitrate=N/A speed=14.9x    frame=  980 fps=382 q=-0.0 size=N/A time=00:00:40.87 bitrate=N/A speed=15.9x    frame= 1257 fps=406 q=-0.0 size=N/A time=00:00:52.42 bitrate=N/A speed=16.9x    frame= 1503 fps=417 q=-0.0 size=N/A time=00:01:02.68 bitrate=N/A speed=17.4x    frame= 1767 fps=429 q=-0.0 size=N/A time=00:01:13.69 bitrate=N/A speed=17.9x    frame= 2007 fps=433 q=-0.0 size=N/A time=00:01:23.70 bitrate=N/A speed=18.1x    frame= 2261 fps=439 q=-0.0 size=N/A time=00:01:34.30 bitrate=N/A speed=18.3x    frame= 2513 fps=444 q=-0.0 size=N/A time=00:01:44.81 bitrate=N/A speed=18.5x    frame= 2715 fps=439 q=-0.0 size=N/A time=00:01:53.23 bitrate=N/A speed=18.3x    frame= 2950 fps=441 q=-0.0 size=N/A time=00:02:03.03 bitrate=N/A speed=18.4x    frame= 3166 fps=439 q=-0.0 size=N/A time=00:02:12.04 bitrate=N/A speed=18.3x    frame= 3363 fps=435 q=-0.0 size=N/A time=00:02:20.26 bitrate=N/A speed=18.2x    frame= 3579 fps=434 q=-0.0 size=N/A time=00:02:29.27 bitrate=N/A speed=18.1x    frame= 3808 fps=434 q=-0.0 size=N/A time=00:02:38.82 bitrate=N/A speed=18.1x    frame= 4013 fps=432 q=-0.0 size=N/A time=00:02:47.37 bitrate=N/A speed=  18x    frame= 4193 fps=427 q=-0.0 size=N/A time=00:02:54.88 bitrate=N/A speed=17.8x    frame= 4373 fps=424 q=-0.0 size=N/A time=00:03:02.39 bitrate=N/A speed=17.7x    frame= 4595 fps=424 q=-0.0 size=N/A time=00:03:11.64 bitrate=N/A speed=17.7x    frame= 4830 fps=425 q=-0.0 size=N/A time=00:03:21.45 bitrate=N/A speed=17.7x    frame= 5086 fps=428 q=-0.0 size=N/A time=00:03:32.12 bitrate=N/A speed=17.8x    frame= 5323 fps=429 q=-0.0 size=N/A time=00:03:42.01 bitrate=N/A speed=17.9x    frame= 5540 fps=429 q=-0.0 size=N/A time=00:03:51.06 bitrate=N/A speed=17.9x    frame= 5765 fps=429 q=-0.0 size=N/A time=00:04:00.44 bitrate=N/A speed=17.9x    frame= 6002 fps=430 q=-0.0 size=N/A time=00:04:10.33 bitrate=N/A speed=17.9x    frame= 6263 fps=433 q=-0.0 size=N/A time=00:04:21.21 bitrate=N/A speed=18.1x    frame= 6523 fps=435 q=-0.0 size=N/A time=00:04:32.06 bitrate=N/A speed=18.2x    frame= 6730 fps=434 q=-0.0 size=N/A time=00:04:40.69 bitrate=N/A speed=18.1x    frame= 6942 fps=433 q=-0.0 size=N/A time=00:04:49.53 bitrate=N/A speed=18.1x    frame= 7129 fps=431 q=-0.0 size=N/A time=00:04:57.33 bitrate=N/A speed=  18x    frame= 7400 fps=434 q=-0.0 size=N/A time=00:05:08.64 bitrate=N/A speed=18.1x    frame= 7648 fps=436 q=-0.0 size=N/A time=00:05:18.98 bitrate=N/A speed=18.2x    frame= 7875 fps=436 q=-0.0 size=N/A time=00:05:28.45 bitrate=N/A speed=18.2x    frame= 8074 fps=434 q=-0.0 size=N/A time=00:05:36.75 bitrate=N/A speed=18.1x    frame= 8271 fps=433 q=-0.0 size=N/A time=00:05:44.96 bitrate=N/A speed=18.1x    frame= 8457 fps=431 q=-0.0 size=N/A time=00:05:52.72 bitrate=N/A speed=  18x    frame= 8665 fps=430 q=-0.0 size=N/A time=00:06:01.40 bitrate=N/A speed=17.9x    frame= 8894 fps=431 q=-0.0 size=N/A time=00:06:10.95 bitrate=N/A speed=  18x    frame= 9134 fps=431 q=-0.0 size=N/A time=00:06:20.96 bitrate=N/A speed=  18x    frame= 9408 fps=434 q=-0.0 size=N/A time=00:06:32.39 bitrate=N/A speed=18.1x    frame= 9670 fps=435 q=-0.0 size=N/A time=00:06:43.31 bitrate=N/A speed=18.2x    frame= 9949 fps=438 q=-0.0 size=N/A time=00:06:54.95 bitrate=N/A speed=18.3x    frame=10177 fps=438 q=-0.0 size=N/A time=00:07:04.46 bitrate=N/A speed=18.3x    frame=10443 fps=439 q=-0.0 size=N/A time=00:07:15.56 bitrate=N/A speed=18.3x    frame=10695 fps=441 q=-0.0 size=N/A time=00:07:26.07 bitrate=N/A speed=18.4x    frame=10951 fps=442 q=-0.0 size=N/A time=00:07:36.74 bitrate=N/A speed=18.4x    frame=11184 fps=442 q=-0.0 size=N/A time=00:07:46.46 bitrate=N/A speed=18.4x    frame=11433 fps=443 q=-0.0 size=N/A time=00:07:56.85 bitrate=N/A speed=18.5x    frame=11638 fps=442 q=-0.0 size=N/A time=00:08:05.40 bitrate=N/A speed=18.4x    frame=11891 fps=443 q=-0.0 size=N/A time=00:08:15.95 bitrate=N/A speed=18.5x    frame=12165 fps=444 q=-0.0 size=N/A time=00:08:27.38 bitrate=N/A speed=18.5x    frame=12387 fps=444 q=-0.0 size=N/A time=00:08:36.64 bitrate=N/A speed=18.5x    frame=12659 fps=446 q=-0.0 size=N/A time=00:08:47.98 bitrate=N/A speed=18.6x    frame=12920 fps=447 q=-0.0 size=N/A time=00:08:58.87 bitrate=N/A speed=18.6x    frame=13198 fps=448 q=-0.0 size=N/A time=00:09:10.46 bitrate=N/A speed=18.7x    frame=13461 fps=449 q=-0.0 size=N/A time=00:09:21.43 bitrate=N/A speed=18.7x    frame=13729 fps=450 q=-0.0 size=N/A time=00:09:32.61 bitrate=N/A speed=18.8x    frame=14017 fps=452 q=-0.0 size=N/A time=00:09:44.62 bitrate=N/A speed=18.8x    frame=14262 fps=452 q=-0.0 size=N/A time=00:09:54.84 bitrate=N/A speed=18.9x    frame=14545 fps=454 q=-0.0 size=N/A time=00:10:06.64 bitrate=N/A speed=18.9x    frame=14822 fps=455 q=-0.0 size=N/A time=00:10:18.20 bitrate=N/A speed=  19x    frame=15107 fps=457 q=-0.0 size=N/A time=00:10:30.08 bitrate=N/A speed=  19x    frame=15364 fps=457 q=-0.0 size=N/A time=00:10:40.80 bitrate=N/A speed=19.1x    frame=15612 fps=458 q=-0.0 size=N/A time=00:10:51.15 bitrate=N/A speed=19.1x    frame=15892 fps=459 q=-0.0 size=N/A time=00:11:02.82 bitrate=N/A speed=19.1x    frame=16160 fps=460 q=-0.0 size=N/A time=00:11:14.00 bitrate=N/A speed=19.2x    frame=16399 fps=460 q=-0.0 size=N/A time=00:11:23.97 bitrate=N/A speed=19.2x    frame=16614 fps=459 q=-0.0 size=N/A time=00:11:32.94 bitrate=N/A speed=19.2x    frame=16865 fps=460 q=-0.0 size=N/A time=00:11:43.41 bitrate=N/A speed=19.2x    frame=17099 fps=460 q=-0.0 size=N/A time=00:11:53.17 bitrate=N/A speed=19.2x    frame=17315 fps=459 q=-0.0 size=N/A time=00:12:02.17 bitrate=N/A speed=19.1x    frame=17527 fps=459 q=-0.0 size=N/A time=00:12:11.02 bitrate=N/A speed=19.1x    frame=17792 fps=459 q=-0.0 size=N/A time=00:12:22.07 bitrate=N/A speed=19.2x    frame=18071 fps=460 q=-0.0 size=N/A time=00:12:33.71 bitrate=N/A speed=19.2x    frame=18314 fps=460 q=-0.0 size=N/A time=00:12:43.84 bitrate=N/A speed=19.2x    frame=18553 fps=461 q=-0.0 size=N/A time=00:12:53.81 bitrate=N/A speed=19.2x    frame=18826 fps=461 q=-0.0 size=N/A time=00:13:05.20 bitrate=N/A speed=19.2x    frame=19096 fps=462 q=-0.0 size=N/A time=00:13:16.46 bitrate=N/A speed=19.3x    frame=19326 fps=462 q=-0.0 size=N/A time=00:13:26.05 bitrate=N/A speed=19.3x    frame=19566 fps=462 q=-0.0 size=N/A time=00:13:36.06 bitrate=N/A speed=19.3x    frame=19803 fps=462 q=-0.0 size=N/A time=00:13:45.95 bitrate=N/A speed=19.3x    frame=20041 fps=462 q=-0.0 size=N/A time=00:13:55.87 bitrate=N/A speed=19.3x    frame=20261 fps=461 q=-0.0 size=N/A time=00:14:05.05 bitrate=N/A speed=19.2x    frame=20500 fps=461 q=-0.0 size=N/A time=00:14:15.02 bitrate=N/A speed=19.2x    frame=20744 fps=462 q=-0.0 size=N/A time=00:14:25.19 bitrate=N/A speed=19.2x    frame=21031 fps=463 q=-0.0 size=N/A time=00:14:37.16 bitrate=N/A speed=19.3x    frame=21251 fps=462 q=-0.0 size=N/A time=00:14:46.34 bitrate=N/A speed=19.3x    frame=21484 fps=462 q=-0.0 size=N/A time=00:14:56.06 bitrate=N/A speed=19.3x    frame=21714 fps=462 q=-0.0 size=N/A time=00:15:05.65 bitrate=N/A speed=19.3x    frame=21955 fps=462 q=-0.0 size=N/A time=00:15:15.70 bitrate=N/A speed=19.3x    frame=22171 fps=462 q=-0.0 size=N/A time=00:15:24.71 bitrate=N/A speed=19.2x    frame=22437 fps=462 q=-0.0 size=N/A time=00:15:35.80 bitrate=N/A speed=19.3x    frame=22696 fps=463 q=-0.0 size=N/A time=00:15:46.61 bitrate=N/A speed=19.3x    frame=22967 fps=463 q=-0.0 size=N/A time=00:15:57.91 bitrate=N/A speed=19.3x    frame=23206 fps=463 q=-0.0 size=N/A time=00:16:07.88 bitrate=N/A speed=19.3x    frame=23462 fps=463 q=-0.0 size=N/A time=00:16:18.56 bitrate=N/A speed=19.3x    frame=23712 fps=464 q=-0.0 size=N/A time=00:16:28.98 bitrate=N/A speed=19.3x    frame=23966 fps=464 q=-0.0 size=N/A time=00:16:39.58 bitrate=N/A speed=19.4x    frame=24215 fps=464 q=-0.0 size=N/A time=00:16:49.96 bitrate=N/A speed=19.4x    frame=24456 fps=464 q=-0.0 size=N/A time=00:17:00.01 bitrate=N/A speed=19.4x    frame=24696 fps=464 q=-0.0 size=N/A time=00:17:10.02 bitrate=N/A speed=19.4x    frame=24969 fps=465 q=-0.0 size=N/A time=00:17:21.41 bitrate=N/A speed=19.4x    frame=25233 fps=465 q=-0.0 size=N/A time=00:17:32.42 bitrate=N/A speed=19.4x    frame=25510 fps=466 q=-0.0 size=N/A time=00:17:43.97 bitrate=N/A speed=19.4x    frame=25799 fps=467 q=-0.0 size=N/A time=00:17:56.03 bitrate=N/A speed=19.5x    frame=26051 fps=467 q=-0.0 size=N/A time=00:18:06.54 bitrate=N/A speed=19.5x    frame=26300 fps=467 q=-0.0 size=N/A time=00:18:16.92 bitrate=N/A speed=19.5x    frame=26566 fps=468 q=-0.0 size=N/A time=00:18:28.02 bitrate=N/A speed=19.5x    frame=26829 fps=468 q=-0.0 size=N/A time=00:18:38.99 bitrate=N/A speed=19.5x    frame=27087 fps=468 q=-0.0 size=N/A time=00:18:49.75 bitrate=N/A speed=19.5x    frame=27365 fps=469 q=-0.0 size=N/A time=00:19:01.34 bitrate=N/A speed=19.6x    frame=27611 fps=469 q=-0.0 size=N/A time=00:19:11.60 bitrate=N/A speed=19.6x    frame=27864 fps=469 q=-0.0 size=N/A time=00:19:22.16 bitrate=N/A speed=19.6x    frame=28132 fps=470 q=-0.0 size=N/A time=00:19:33.33 bitrate=N/A speed=19.6x    frame=28394 fps=470 q=-0.0 size=N/A time=00:19:44.26 bitrate=N/A speed=19.6x    frame=28654 fps=470 q=-0.0 size=N/A time=00:19:55.11 bitrate=N/A speed=19.6x    frame=28925 fps=471 q=-0.0 size=N/A time=00:20:06.41 bitrate=N/A speed=19.6x    frame=29204 fps=471 q=-0.0 size=N/A time=00:20:18.05 bitrate=N/A speed=19.7x    frame=29471 fps=472 q=-0.0 size=N/A time=00:20:29.18 bitrate=N/A speed=19.7x    frame=29738 fps=472 q=-0.0 size=N/A time=00:20:40.32 bitrate=N/A speed=19.7x    frame=30015 fps=473 q=-0.0 size=N/A time=00:20:51.87 bitrate=N/A speed=19.7x    frame=30280 fps=473 q=-0.0 size=N/A time=00:21:02.92 bitrate=N/A speed=19.7x    frame=30531 fps=473 q=-0.0 size=N/A time=00:21:13.39 bitrate=N/A speed=19.7x    frame=30783 fps=473 q=-0.0 size=N/A time=00:21:23.90 bitrate=N/A speed=19.7x    frame=31047 fps=474 q=-0.0 size=N/A time=00:21:34.91 bitrate=N/A speed=19.7x    frame=31324 fps=474 q=-0.0 size=N/A time=00:21:46.47 bitrate=N/A speed=19.8x    frame=31573 fps=474 q=-0.0 size=N/A time=00:21:56.85 bitrate=N/A speed=19.8x    frame=31838 fps=474 q=-0.0 size=N/A time=00:22:07.90 bitrate=N/A speed=19.8x    frame=32103 fps=475 q=-0.0 size=N/A time=00:22:18.96 bitrate=N/A speed=19.8x    frame=32374 fps=475 q=-0.0 size=N/A time=00:22:30.26 bitrate=N/A speed=19.8x    frame=32654 fps=476 q=-0.0 size=N/A time=00:22:41.94 bitrate=N/A speed=19.8x    frame=32923 fps=476 q=-0.0 size=N/A time=00:22:53.16 bitrate=N/A speed=19.8x    frame=33152 fps=476 q=-0.0 size=N/A time=00:23:02.71 bitrate=N/A speed=19.8x    frame=33383 fps=475 q=-0.0 size=N/A time=00:23:12.34 bitrate=N/A speed=19.8x    frame=33522 fps=474 q=-0.0 size=N/A time=00:23:18.14 bitrate=N/A speed=19.8x    frame=33689 fps=473 q=-0.0 size=N/A time=00:23:25.11 bitrate=N/A speed=19.7x    frame=33852 fps=472 q=-0.0 size=N/A time=00:23:31.91 bitrate=N/A speed=19.7x    frame=34027 fps=471 q=-0.0 size=N/A time=00:23:39.20 bitrate=N/A speed=19.6x    frame=34189 fps=470 q=-0.0 size=N/A time=00:23:45.96 bitrate=N/A speed=19.6x    frame=34364 fps=469 q=-0.0 size=N/A time=00:23:53.26 bitrate=N/A speed=19.6x    frame=34531 fps=468 q=-0.0 size=N/A time=00:24:00.23 bitrate=N/A speed=19.5x    frame=34666 fps=466 q=-0.0 size=N/A time=00:24:05.86 bitrate=N/A speed=19.5x    frame=34861 fps=466 q=-0.0 size=N/A time=00:24:13.99 bitrate=N/A speed=19.4x    frame=35071 fps=465 q=-0.0 size=N/A time=00:24:22.75 bitrate=N/A speed=19.4x    frame=35298 fps=465 q=-0.0 size=N/A time=00:24:32.22 bitrate=N/A speed=19.4x    frame=35544 fps=465 q=-0.0 size=N/A time=00:24:42.48 bitrate=N/A speed=19.4x    [Parsed_ssim_10 @ 0000021f91123a00] SSIM Y:0.995350 (23.325562) U:0.995139 (23.132497) V:0.995314 (23.291566) All:0.995309 (23.287141)
[out#0/null @ 0000021f90cb0f40] video:15367KiB audio:279696KiB subtitle:0KiB other streams:0KiB global headers:0KiB muxing overhead: unknown
frame=35763 fps=465 q=-0.0 Lsize=N/A time=00:24:51.61 bitrate=N/A speed=19.4x    
